PathFileType	4	(X/Y/Z)	D:\TRACE\spot_10-12-23\spot_arm_motion_2_1-platform.trc
DataRate	CameraRate	NumFrames	NumMarkers	Units	OrigDataRate	OrigDataStartFrame	OrigNumFrames
100.00	100.00	      67	5	mm	100.00	876	      7000
Frame#	Time	Left_Front			Right_Front			Left_Aft			Right_Aft			Post			
		X1	Y1	Z1	X2	Y2	Z2	X3	Y3	Z3	X4	Y4	Z4	X5	Y5	Z5	

876	8.750	-745.58490	69.36279	-623.31909	827.14514	73.74263	-616.47968	-662.15479	-39.18630	509.32178	755.06848	-42.29473	595.16321	37.19811	834.11615	-869.56073	
877	8.760	-746.46893	69.09477	-623.39386	826.35986	73.47211	-616.57074	-662.95258	-39.08504	509.31964	754.37744	-42.12214	595.23877	36.39071	833.94641	-869.90558	
878	8.770	-747.17328	69.04124	-623.44995	825.42383	73.32165	-616.68573	-663.79327	-39.04111	509.28244	753.61816	-41.84095	595.18030	35.51631	833.69763	-870.23901	
879	8.780	-748.00745	68.73724	-623.63245	824.61261	73.11265	-616.81580	-664.53033	-38.73960	509.10779	752.88403	-41.65429	595.04950	34.65888	833.26447	-870.52686	
880	8.790	-748.64618	68.04349	-623.63159	823.80548	72.59216	-617.04712	-665.46069	-38.41253	509.05081	751.95129	-41.38595	594.97986	33.88543	832.68512	-871.00299	
881	8.800	-749.65704	67.88504	-623.85132	822.93060	72.20872	-617.15747	-666.20764	-38.25763	509.07019	751.16748	-41.05473	595.05536	33.10817	832.09753	-871.49255	
882	8.810	-750.43976	67.68069	-624.00336	822.13934	71.92780	-617.17560	-667.04657	-38.04578	509.12860	750.29846	-40.79213	595.06305	32.28387	831.65045	-871.97473	
883	8.820	-751.36761	67.00010	-624.10645	821.37061	71.60007	-617.34991	-667.83392	-37.71151	508.99823	749.32532	-40.45010	594.89825	31.34720	831.07153	-872.73505	
884	8.830	-752.02393	66.52422	-624.34247	820.63989	71.00862	-617.42419	-668.82135	-37.16172	508.81857	748.52496	-40.02994	594.84650	30.47703	830.38690	-873.63281	
885	8.840	-753.21246	66.29257	-624.48169	819.47778	70.43665	-617.69952	-669.75983	-36.71033	508.72247	747.81030	-39.58548	594.78375	29.75014	829.67609	-874.47406	
886	8.850	-754.08447	65.60629	-624.59283	818.52478	70.03282	-617.93665	-670.42053	-36.43609	508.79077	746.47064	-39.03803	594.50769	28.76023	828.88806	-875.35754	
887	8.860	-754.92505	64.97997	-624.93805	817.72485	69.31212	-618.08667	-671.25885	-36.11752	508.90714	745.86005	-38.68276	594.52429	27.70803	828.14246	-876.33740	
888	8.870	-755.88715	64.37933	-624.93982	816.97217	68.63699	-618.11908	-672.38226	-35.80796	508.68411	745.02618	-38.15682	594.47150	26.82370	827.25043	-877.28168	
889	8.880	-756.74835	63.67634	-625.23846	815.87427	68.11913	-618.41907	-673.38123	-35.39502	508.62729	743.79431	-37.62675	594.26111	25.93294	826.53607	-878.19958	
890	8.890	-757.58490	62.84416	-625.43079	814.96136	67.54905	-618.55981	-674.21759	-34.99142	508.51929	743.01666	-37.07117	594.21771	24.77560	825.66644	-879.15570	
891	8.900	-758.67426	62.54377	-625.61328	813.93164	66.84877	-619.05078	-675.24500	-34.28450	508.06342	742.13696	-36.50423	594.04932	23.84681	824.65991	-880.13391	
892	8.910	-759.76642	61.71651	-625.82147	812.92004	66.25084	-619.09167	-676.23389	-33.92827	508.07324	740.98517	-35.95018	593.81116	23.30553	823.63495	-881.14532	
893	8.920	-760.71423	61.14105	-626.13135	811.91064	65.37338	-619.24469	-677.07440	-33.34796	508.02676	740.11896	-35.33805	593.79742	22.05287	822.55981	-882.23309	
894	8.930	-761.67999	60.16476	-626.39685	811.09894	64.48255	-619.37463	-678.21399	-32.63012	507.76544	739.08044	-34.69186	593.62250	21.15426	821.56165	-883.13647	
895	8.940	-762.69507	59.47726	-626.55273	810.01105	63.74265	-619.84338	-679.30945	-32.21183	507.83740	738.02643	-34.03320	593.40100	19.76237	820.61011	-884.35400	
896	8.950	-763.80396	58.48190	-626.87292	808.93848	62.97300	-620.20337	-680.37592	-31.44066	507.21774	736.97546	-33.20847	593.36060	18.55945	819.48126	-885.59076	
897	8.960	-764.66180	57.87936	-627.17102	807.96674	62.07331	-620.28119	-681.46594	-30.88038	507.10394	736.04193	-32.58221	593.18835	17.67735	818.20709	-886.80450	
898	8.970	-765.63550	56.77158	-627.38696	806.97015	61.16669	-620.69653	-682.45825	-30.24524	507.01929	735.02380	-31.96349	592.97772	16.94110	816.89783	-888.09351	
899	8.980	-766.77948	56.05652	-627.70355	805.74713	60.13257	-620.82520	-683.40765	-29.68271	506.79871	733.83868	-31.00237	592.92499	16.08432	815.61456	-889.53265	
900	8.990	-767.81714	54.90936	-628.06873	804.88214	59.42211	-621.30389	-684.49890	-28.79337	506.55969	732.87030	-30.43177	592.78345	14.80580	814.26685	-891.04083	
901	9.000	-768.92743	54.05546	-628.24506	803.61005	58.45515	-621.67517	-685.62183	-28.16020	506.51639	731.54236	-29.69798	592.52637	13.81653	812.89966	-892.44525	
902	9.010	-769.94989	53.16484	-628.69666	802.63104	57.45421	-621.94617	-686.61340	-27.62647	506.36911	730.63519	-28.73967	592.36176	13.07292	811.57526	-894.03009	
903	9.020	-771.20813	52.17900	-629.02539	801.59552	56.49254	-622.01971	-687.94257	-26.64668	506.17010	729.52673	-27.99018	592.14227	11.84394	810.22772	-895.54803	
904	9.030	-772.14459	50.89051	-629.34192	800.50702	55.30073	-622.62567	-689.15198	-25.96240	506.02975	728.46362	-27.01483	592.00104	10.64149	808.77625	-896.94489	
905	9.040	-773.32544	50.08575	-629.73755	799.34192	54.40668	-622.73822	-690.18768	-25.37532	505.85754	727.46204	-26.13695	591.80798	9.85221	807.22675	-898.32776	
906	9.050	-774.44830	49.00272	-629.95557	798.62244	53.32122	-622.93182	-691.27551	-24.46458	505.64456	726.20404	-25.37607	591.62506	8.54067	805.73193	-899.91827	
907	9.060	-775.48419	47.88020	-630.32428	797.20068	52.16370	-623.39478	-692.17468	-23.62727	505.33398	725.37567	-24.36976	591.47247	7.38878	804.07990	-901.45856	
908	9.070	-776.45941	46.75665	-630.64581	796.02142	51.03410	-623.97015	-693.36285	-22.96366	505.29129	724.15533	-23.35420	591.11316	6.26665	802.60602	-902.82513	
909	9.080	-777.79376	45.59405	-631.00818	795.01318	50.00557	-624.15021	-694.43976	-22.21301	504.77097	723.06671	-22.40013	590.98730	5.28813	800.83911	-904.62811	
910	9.090	-778.90094	44.38126	-631.44098	793.95099	48.57794	-624.35626	-695.63159	-21.27823	504.79257	721.86578	-21.57510	590.76544	4.15652	799.18903	-906.36621	
911	9.100	-779.97778	43.37904	-631.67883	792.80029	47.58694	-624.73999	-696.59186	-20.54445	504.43939	720.50958	-20.66325	590.44727	2.90915	797.42456	-907.98151	
912	9.110	-781.18048	42.00727	-631.99597	791.62500	46.34889	-625.36609	-697.87170	-19.64601	504.57672	719.54510	-19.69028	590.27155	1.83305	795.77185	-909.62189	
913	9.120	-782.18036	40.77768	-632.50555	790.50458	45.26616	-625.50000	-698.87421	-18.90903	504.22903	718.30109	-18.66267	589.91931	0.73236	794.13348	-911.56256	
914	9.130	-783.38763	39.73382	-632.84796	789.44189	43.84941	-625.76251	-700.10980	-18.08408	503.83780	717.34418	-17.63099	589.72375	-0.48101	792.31256	-913.31464	
915	9.140	-784.48962	38.24814	-633.10089	788.28583	42.81130	-626.19580	-701.26538	-17.26214	503.29434	716.16516	-16.56865	589.57861	-1.71343	790.65643	-915.28857	
916	9.150	-785.77588	37.02763	-633.52332	787.04059	41.37342	-626.78992	-702.38739	-16.17760	503.12857	714.98962	-15.34614	589.28979	-28.76407	709.50116	-929.39453	
917	9.160	-786.65948	35.80525	-633.85431	785.95001	40.18282	-626.91956	-703.45734	-15.22305	502.84143	713.94427	-14.53872	589.08820	-29.65659	708.26733	-932.14233	
918	9.170	-787.67969	34.46920	-634.09552	785.00146	39.00785	-627.19446	-704.59442	-14.36654	502.52927	712.66736	-13.47210	588.71246	-4.73930	785.24115	-920.86768	
919	9.180	-788.80927	33.08079	-634.70752	783.84290	37.77529	-627.64014	-705.73645	-13.57397	502.28369	711.52307	-12.53169	588.51349	-6.13837	783.45068	-922.41455	
920	9.190	-790.16492	31.95292	-635.06506	782.68085	36.14818	-628.05328	-706.96179	-12.67092	501.97696	710.35089	-11.39432	588.29376	-6.91176	781.49084	-924.15491	
921	9.200	-791.17139	30.44819	-635.15106	781.39117	34.97121	-628.46808	-707.95850	-11.57075	501.83905	709.30670	-10.20010	588.04755	-8.30911	779.59009	-925.96198	
922	9.210	-792.48761	29.50770	-635.79285	780.41821	33.64632	-628.83453	-709.20166	-10.67113	501.49677	708.28192	-9.07015	587.78571	-9.26492	777.51843	-927.95636	
923	9.220	-793.44312	27.90878	-636.19092	779.09631	32.10444	-629.10767	-710.37012	-9.72489	501.10480	706.99329	-7.97256	587.32422	-10.36139	775.64270	-929.84973	
924	9.230	-794.50238	26.40287	-636.47516	778.18884	30.93813	-629.55054	-711.38934	-8.95617	500.96585	705.85193	-6.96870	586.97021	-11.63912	773.66614	-931.65588	
925	9.240	-795.80835	25.24642	-636.81335	777.01056	29.44704	-629.89777	-712.47443	-7.78892	500.53360	704.52618	-5.84883	586.61816	-12.71116	771.69232	-933.47675	
926	9.250	-796.91022	23.86267	-637.25812	775.86237	28.09798	-630.27075	-713.56140	-7.06555	500.59354	703.44513	-4.80586	586.45221	-13.76325	769.57031	-935.58789	
927	9.260	-797.94568	22.28708	-637.57983	774.63867	26.72239	-630.82843	-714.87201	-5.94714	500.10083	702.52991	-3.38505	586.17853	-15.03267	767.69403	-937.62866	
928	9.270	-798.99091	20.87578	-638.02911	773.58453	25.30413	-631.12305	-715.93689	-4.97907	499.56381	701.31982	-2.37222	585.93018	-16.38963	765.63507	-939.60443	
929	9.280	-800.32874	19.70935	-638.26764	772.64600	23.86857	-631.25311	-716.84332	-3.97461	499.34113	700.29547	-1.14315	585.65894	-17.12381	763.54926	-941.68707	
930	9.290	-801.41852	18.06897	-638.66144	771.47583	22.44053	-631.68127	-718.16125	-3.01887	498.94281	698.93414	-0.13998	585.23547	-17.64860	759.30206	-944.23871	
931	9.300	-802.43903	16.77593	-639.17072	770.48151	21.08236	-632.15424	-719.24475	-2.05859	498.71085	697.98059	1.03961	584.93671	-19.15850	759.47833	-945.59723	
932	9.310	-803.48450	15.36952	-639.57715	769.01404	19.59265	-632.54315	-720.30029	-1.16309	498.41159	696.83582	2.16256	584.45471	-20.51500	757.33862	-947.62274	
933	9.320	-804.57971	13.83398	-639.67175	768.22437	18.46107	-632.72284	-721.35455	-0.05555	498.00732	695.59308	3.28951	584.23383	-21.79689	755.25531	-949.47589	
934	9.330	-805.59027	12.43161	-640.05298	767.24530	16.85007	-633.05499	-722.40173	0.89659	497.91592	694.58667	4.32066	583.96960	-22.53292	753.25458	-951.34973	
935	9.340	-806.57294	11.24096	-640.42889	766.15741	15.38553	-633.43689	-723.41443	1.90093	497.41119	693.26056	5.38121	583.56329	-23.54246	751.09698	-953.09119	
936	9.350	-807.53015	9.55068	-640.86682	764.96564	14.17083	-633.96851	-724.39355	2.62922	497.25858	692.48492	6.49765	583.20868	-24.61514	748.91052	-954.73468	
937	9.360	-808.53601	8.06108	-641.18677	763.98590	12.61399	-634.29663	-725.57874	3.80407	496.95065	691.79468	8.12240	582.80878	-25.64220	746.85260	-956.54468	
938	9.370	-809.76062	6.85726	-641.44861	762.94659	11.25251	-634.51288	-726.65308	4.93609	496.40005	690.90173	9.33191	582.43884	-26.62927	744.93060	-958.63531	
939	9.380	-810.57495	5.21289	-641.78510	762.08972	9.61209	-634.84735	-727.58276	5.82739	496.06503	689.17310	9.71276	582.11780	-27.61716	742.78766	-960.56207	
940	9.390	-811.94440	4.28475	-642.23676	760.98059	8.41879	-635.19873	-728.78003	6.76543	495.65128	687.92249	10.86106	581.66827	-28.68215	740.67145	-962.43768	
941	9.400	-812.67584	2.64423	-642.52051	759.93652	7.02759	-635.63367	-729.78638	7.77893	495.30518	687.92395	12.67404	581.44263	-29.44863	738.41602	-964.44293	
942	9.410	-813.57849	0.98339	-642.77594	759.04590	5.40895	-635.90295	-730.45032	8.64299	495.09790	686.64404	13.91624	581.04071	-30.60559	736.42908	-966.23004	
